<svg xmlns="http://www.w3.org/2000/svg" viewBox="0 0 800 450" width="100%" height="100%">
  <defs>
    <linearGradient id="grad_algo-v" x1="0%" y1="0%" x2="100%" y2="100%">
      <stop offset="0%" stop-color="#18181b"/>
      <stop offset="100%" stop-color="#27272a"/>
    </linearGradient>
    <pattern id="grid" width="40" height="40" patternUnits="userSpaceOnUse">
      <path d="M 40 0 L 0 0 0 40" fill="none" stroke="#ffffff" stroke-width="1" opacity="0.06"/>
    </pattern>
  </defs>
  <rect width="800" height="450" fill="url(#grad_algo-v)"/>
  <rect width="800" height="450" fill="url(#grid)"/>
  
  
            <!-- Candlestick Volume Profile Bars -->
            <g transform="translate(180, 100)">
                <rect x="0" y="40" width="120" height="24" rx="4" fill="#ef4444" opacity="0.8"/>
                <rect x="0" y="75" width="220" height="24" rx="4" fill="#3b82f6" opacity="0.9"/>
                <rect x="0" y="110" width="310" height="24" rx="4" fill="#fbbf24"/>
                <rect x="0" y="145" width="190" height="24" rx="4" fill="#3b82f6" opacity="0.9"/>
                <rect x="0" y="180" width="80" height="24" rx="4" fill="#10b981" opacity="0.8"/>
            </g>
            <path d="M220,280 L350,180 L480,240 L590,140" fill="none" stroke="#ffffff" stroke-width="8" stroke-linecap="round"/>
            <text x="500" y="270" font-family="monospace" font-size="22" font-weight="bold" fill="#fbbf24">POC / VWAP</text>
        
  
  <!-- Subtle Category Tag on graphic -->
  <g transform="translate(40, 40)">
    <rect x="0" y="0" width="160" height="32" rx="16" fill="#ffffff" opacity="0.18"/>
    <text x="80" y="21" font-family="system-ui, sans-serif" font-size="12" font-weight="700" fill="#ffffff" text-anchor="middle" letter-spacing="0.5">MICROSTRUCTURE</text>
  </g>
</svg>