<svg xmlns="http://www.w3.org/2000/svg" viewBox="0 0 800 450" width="100%" height="100%">
  <defs>
    <linearGradient id="grad_market" x1="0%" y1="0%" x2="100%" y2="100%">
      <stop offset="0%" stop-color="#312e81"/>
      <stop offset="100%" stop-color="#4338ca"/>
    </linearGradient>
    <pattern id="grid" width="40" height="40" patternUnits="userSpaceOnUse">
      <path d="M 40 0 L 0 0 0 40" fill="none" stroke="#ffffff" stroke-width="1" opacity="0.06"/>
    </pattern>
  </defs>
  <rect width="800" height="450" fill="url(#grad_market)"/>
  <rect width="800" height="450" fill="url(#grid)"/>
  
  
            <!-- Dual Directional Flows & Currency Globes -->
            <circle cx="270" cy="225" r="90" fill="#1e1b4b" stroke="#818cf8" stroke-width="6"/>
            <text x="270" y="240" font-family="system-ui, sans-serif" font-size="44" font-weight="bold" fill="#ffffff" text-anchor="middle">$</text>
            <circle cx="530" cy="225" r="90" fill="#1e1b4b" stroke="#34d399" stroke-width="6"/>
            <text x="530" y="240" font-family="system-ui, sans-serif" font-size="44" font-weight="bold" fill="#ffffff" text-anchor="middle">₹</text>
            <!-- Dynamic Arrow Waves -->
            <path d="M340,180 C400,140 430,140 460,180" fill="none" stroke="#34d399" stroke-width="12" stroke-linecap="round"/>
            <polygon points="455,160 480,185 445,195" fill="#34d399"/>
            <path d="M460,270 C400,310 370,310 340,270" fill="none" stroke="#f43f5e" stroke-width="12" stroke-linecap="round"/>
            <polygon points="345,290 320,265 355,255" fill="#f43f5e"/>
        
  
  <!-- Subtle Category Tag on graphic -->
  <g transform="translate(40, 40)">
    <rect x="0" y="0" width="160" height="32" rx="16" fill="#ffffff" opacity="0.18"/>
    <text x="80" y="21" font-family="system-ui, sans-serif" font-size="12" font-weight="700" fill="#ffffff" text-anchor="middle" letter-spacing="0.5">INSTITUTIONAL FLOWS</text>
  </g>
</svg>